<?xml version="1.0" encoding="UTF-8"?>
<svg id="Layer_1" data-name="Layer 1" xmlns="http://www.w3.org/2000/svg" viewBox="0 0 810 810">
  <defs>
    <style>
      .cls-1 {
        fill: #fff;
      }
    </style>
  </defs>
  <path d="M633.75,0l3.46.64c91.61,7.19,164.97,80.54,172.15,172.15l.64,3.46v458.25l-.65,3.47c-6.99,90.04-78.13,162.34-166.6,172.03H167.25C78.78,800.3,7.65,728,.65,637.97l-.65-3.47V176.24s.69-4.2.69-4.2C8.25,80.99,81,8.26,172.03.68c1.53.03,3.03-.16,4.24-.68h457.48ZM484.47,408.5l-91.54,20.42,17.32-115.12,9.01-8.58,14.61-13.82,13.01-12.53,33.95,45.12,10.38-10.62,44.26-44.83,19.1-19.54c-4.94-24.68-15.76-46.75-32.3-65.59-24.6-28.03-58.62-48.48-95.43-55.7-44.8,21.52-79.35,56.64-107.38,97.19-11.21,25.45-19.95,51.14-27.03,78.06-13.57,51.56-21.27,104.07-23.93,157.18l-41.94,18.4-10.27,89.88,62.94-10.78,34.32,125.77,82.3-16.96-7.68-125.54,64.75-11.51,31.57-120.89Z"/>
  <g>
    <path class="cls-1" d="M484.47,408.5l-31.57,120.89-64.75,11.51,7.68,125.54-82.3,16.96-34.32-125.77-62.94,10.78,10.27-89.88,41.94-18.4c2.66-53.11,10.36-105.62,23.93-157.18,7.08-26.92,15.82-52.6,27.03-78.06,28.03-40.55,62.58-75.67,107.38-97.19,36.81,7.22,70.83,27.67,95.43,55.7,16.53,18.84,27.36,40.91,32.3,65.59l-19.1,19.54-44.26,44.83-10.38,10.62-33.95-45.12-13.01,12.53-14.61,13.82-9.01,8.58-17.32,115.12,91.54-20.42ZM364.86,642.59l-7.72-126.15,72.03-12.73,14.59-55.94-86.33,19.38,25.23-167.66,67.91-64.74,33.3,44.29,38.05-38.56c-5.4-15.87-14.1-29.93-25.82-42.09-18-18.89-40.28-32.58-65.42-39.44-34.86,18.73-63.03,48.63-85.5,80.51-26.12,60.31-40.05,131.3-45.5,196.54l-2.66,43.77-43.2,19.13-3.81,33.9,50.55-8.59,34.08,124.81,30.2-6.42Z"/>
    <path d="M364.86,642.59l-30.2,6.42-34.08-124.81-50.55,8.59,3.81-33.9,43.2-19.13,2.66-43.77c5.45-65.24,19.38-136.23,45.5-196.54,22.46-31.88,50.64-61.79,85.5-80.51,25.14,6.87,47.42,20.55,65.42,39.44,11.72,12.16,20.42,26.22,25.82,42.09l-38.05,38.56-33.3-44.29-67.91,64.74-25.23,167.66,86.33-19.38-14.59,55.94-72.03,12.73,7.72,126.15Z"/>
  </g>
</svg>