<?xml version="1.0" encoding="UTF-8"?>
<svg id="Layer_2" data-name="Layer 2" xmlns="http://www.w3.org/2000/svg" viewBox="0 0 349.65 324.95">
  <defs>
    <style>
      .cls-1 {
        fill: #fff;
      }
    </style>
  </defs>
  <g id="Layer_1-2" data-name="Layer 1">
    <g>
      <path class="cls-1" d="M159.39,280.79l151.76.97.08,40.37c0,1.5-2.01,2.82-3.69,2.82l-148.68-.2c-62.67-.08-118.43-38.31-144.38-94.83C-10.64,175.25-2.41,111.46,34.02,63.88,65.96,22.15,115.03-.12,167.63,0l181.92.41.1,39.25c0,2.76-1.53,3.87-4.17,3.88l-184.7.57c-31.97.1-62.09,15.93-83.32,39.07-16.78,18.29-27.17,41.16-30.24,65.51-8.53,67.73,43.08,129.65,112.17,132.09Z"/>
      <path class="cls-1" d="M186.61,246.77c0,3.79-2.21,4.49-4.89,4.49l-35.76.04c-2.28,0-4.07-1.35-4.06-3.91l.08-171.51c0-2.18,1.45-4.58,4.04-4.58l203.45.09-.08,43.27-162.75.11v132.01Z"/>
    </g>
  </g>
</svg>