<svg width="564" height="397" xmlns="http://www.w3.org/2000/svg" xmlns:xlink="http://www.w3.org/1999/xlink" xml:space="preserve" overflow="hidden"><defs><clipPath id="clip0"><rect x="-60" y="1040" width="564" height="397"/></clipPath><clipPath id="clip1"><rect x="-60" y="1040" width="564" height="397"/></clipPath><clipPath id="clip2"><rect x="-59" y="1041" width="562" height="396"/></clipPath><clipPath id="clip3"><rect x="-59" y="1041" width="563" height="396"/></clipPath><clipPath id="clip4"><rect x="-59" y="852" width="3118" height="920"/></clipPath><clipPath id="clip5"><rect x="-59" y="852" width="3118" height="920"/></clipPath></defs><g clip-path="url(#clip0)" transform="translate(60 -1040)"><g clip-path="url(#clip1)"><g clip-path="url(#clip2)"><g clip-path="url(#clip3)"><g clip-path="url(#clip4)"><g clip-path="url(#clip5)"><path d="M3105.99 0C3105.99 185.37 3105.99 370.739 3105.99 561.728L3015.12 561.739 3015.12 554.183C3001.36 563.676 3001.36 563.676 2985.17 570.506 2911.77 590.895 2844.5 564.625 2796.6 505.645 2752.24 429.742 2767.32 339.814 2827.19 278.282 2885.48 242.508 2949.83 223.437 3015.12 256.082 3014.93 248.325 3014.75 240.568 3014.56 232.576 3014.09 203.925 3013.97 175.323 3014.11 146.672 3014.09 134.25 3013.93 121.828 3013.62 109.41 3013.19 91.5901 3013.3 73.8403 3013.51 56.0179 3013.42 45.2895 3013.33 34.5611 3013.24 23.5074 3023.38-1.81048e-06 3023.38 0 3105.99 0ZM2858.17 379.992C2850.8 437.879 2865.49 467.688 2919.09 491.513 2965.48 497.91 3002.08 480.403 3023.38 437.818 3030.78 387.874 3019.52 363.893 2982.07 330.428 2927.43 313.839 2885.35 328.48 2858.17 379.992Z" fill="#FFFFFF" fill-rule="nonzero" fill-opacity="1" transform="matrix(1.00366 0 0 1 -59 852.225)"/><path d="M1412.56 16.5222C1439.82 16.5222 1467.08 16.5222 1495.16 16.5222 1495.16 122.837 1495.16 229.151 1495.16 338.69 1578.71 304.218 1578.71 304.218 1607.71 228.202 1627 191.384 1664.07 202.77 1701.68 206.518 1694.61 272.788 1679.11 313.335 1635.59 363.472 1614.55 386.636 1614.55 386.636 1629.24 402.226 1634.57 407.325 1639.91 412.428 1645.4 417.683 1684.12 458.833 1701.68 505.124 1701.68 561.728 1627.7 573.164 1627.7 573.164 1607.68 546.628 1602.46 533.419 1597.58 520.069 1593.03 506.613 1574.96 456.969 1543.19 445.563 1495.16 429.556 1495.16 473.174 1495.16 516.788 1495.16 561.728 1467.91 561.728 1440.64 561.728 1412.56 561.728 1412.56 381.811 1412.56 201.893 1412.56 16.5222Z" fill="#FFFFFF" fill-rule="nonzero" fill-opacity="1" transform="matrix(1.00366 0 0 1 -59 852.225)"/><path d="M1800.82 16.5222C1883.42 16.5222 1883.42 16.5222 1893.56 36.9963 1893.43 51.0129 1893.43 51.0129 1893.3 65.3122 1893.4 75.3749 1893.51 85.4377 1893.62 95.8058 1893.32 106.443 1893.02 117.081 1892.72 128.042 1892.73 138.68 1892.76 149.318 1892.78 160.278 1892.78 186.729 1892.4 213.121 1891.68 239.562 1899.86 236.836 1908.04 234.11 1916.46 231.3 2010.33 221.565 2077.8 243.761 2122.98 330.428 2150.08 418.686 2122.46 492.861 2047.83 544.433 1999.44 572.253 1932.4 571.326 1883.42 545.208 1883.42 550.66 1883.42 556.112 1883.42 561.728 1856.16 561.728 1828.9 561.728 1800.82 561.728 1800.82 381.811 1800.82 201.893 1800.82 16.5222ZM1883.42 363.472C1877.8 420.652 1885.79 451.395 1941.25 479.12 1987.88 485.48 2009.01 472.1 2040.37 437.818 2055.93 386.56 2045.44 361.053 2009.4 323.719 1959.57 297.422 1908.71 312.886 1883.42 363.472Z" fill="#FFFFFF" fill-rule="nonzero" fill-opacity="1" transform="matrix(1.00366 0 0 1 -59 852.225)"/><path d="M2742.51 206.514C2750.35 283.841 2750.35 283.841 2718.76 305.126 2710.24 308.023 2701.73 310.92 2692.95 313.904 2673.28 343.406 2674.91 355.047 2675.91 389.894 2675.97 399.876 2676.02 409.862 2676.07 420.147 2676.31 441.319 2676.81 462.49 2677.56 483.65 2677.32 558.409 2677.32 558.409 2649.22 568.585 2627.05 568.596 2607.21 566.432 2585.56 561.724 2584.74 528.817 2584.14 495.917 2583.75 463.002 2583.5 446.376 2583.08 429.753 2582.66 413.127 2581.96 343.254 2582.05 273.293 2648.03 231.812 2655.2 227.101 2655.2 227.101 2662.52 222.294 2689.85 207.52 2712.09 205.69 2742.51 206.514Z" fill="#FFFFFF" fill-rule="nonzero" fill-opacity="1" transform="matrix(1.00366 0 0 1 -59 852.225)"/><path d="M0 214.773C38.5494 214.773 54.4289 214.773 92.9782 214.773L92.9782 229.555C110.064 220.062 111.962 218.164 135.203 213.904 179.441 205.794 208.253 216.007 247.817 239.555 275.553 249.868 286.522 247.255 311.32 231.814 377.529 196.556 444.512 210.069 500.086 259.014 553.724 317.516 547.326 387.76 546.229 462.08 546.157 471.667 546.081 481.258 546.005 491.137 545.811 514.666 545.538 538.195 545.196 561.724 516.169 567.264 491.095 570.772 462.592 561.724 449.816 530.468 452.994 498.465 454.33 465.178 454.562 447.075 454.737 428.971 454.847 410.868 455.112 402.781 455.378 394.689 455.655 386.355 453.392 347.211 444.948 316.502 404.766 305.643 363.063 307.105 342.814 309.873 322.163 346.945 319.335 370.926 319.335 370.926 320.838 397.154 320.918 406.737 320.998 416.324 321.081 426.196 321.461 446.467 322.065 466.735 322.888 486.991 322.926 556.83 322.926 556.83 295.27 571.831 268.924 575.047 254.781 574.295 231.297 561.724 218.977 528.855 222.082 495.723 223.552 461.047 223.924 442.169 224.193 423.295 224.36 404.417 224.668 395.98 224.979 387.544 225.298 378.854 222.177 346.235 211.924 320.74 181.733 305.643 145.387 302.48 125.399 304.151 99.1269 330.425 90.2692 356.999 90.4279 374.939 91.1569 402.803 91.1835 412.041 91.2101 421.279 91.2374 430.794 91.335 450.374 91.7253 469.954 92.3992 489.523 92.3301 498.727 92.2606 507.934 92.1893 517.419 92.3286 525.912 92.4676 534.406 92.6111 543.157 82.606 561.724 82.606 561.724 0 561.724 0 447.23 0 332.738 0 214.773Z" fill="#FFFFFF" fill-rule="nonzero" fill-opacity="1" transform="matrix(1.00366 0 0 1 -59 852.225)"/><path d="M954.614 311.326C994.245 406.042 958.061 482.56 882.333 543.142 806.742 576.737 727.092 563.497 669.106 503.902 619.725 435.574 619.725 349.196 669.106 280.864 752.185 195.477 892.528 205.447 954.614 311.326ZM718.67 363.472C711.305 421.358 725.991 451.168 779.594 474.989 825.988 481.39 862.59 463.883 883.882 421.298 890.5 369.308 878.415 340.262 834.318 311.326 784.766 294.29 742.032 319.208 718.67 363.472Z" fill="#FFFFFF" fill-rule="nonzero" fill-opacity="1" transform="matrix(1.00366 0 0 1 -59 852.225)"/><path d="M1313.43 264.34C1310.85 280.86 1310.85 280.86 1296.91 297.384 1292.14 303.858 1287.37 310.331 1282.46 317.002 1255.51 336.469 1244.21 325.268 1214.31 313.904 1170.76 314.792 1148.2 327.459 1123.44 363.468 1119.17 405.454 1122.98 444.033 1164.74 462.596 1196.1 474.461 1203.79 472.111 1233.92 455.367 1279.91 441.098 1294.29 468.998 1321.7 503.902 1269.88 566.504 1194.89 574.075 1121.47 546.525 1047.45 507.353 1018.91 427.107 1032.57 346.948 1066.09 223.049 1217.67 188.161 1313.43 264.34Z" fill="#FFFFFF" fill-rule="nonzero" fill-opacity="1" transform="matrix(1.00366 0 0 1 -59 852.225)"/><path d="M2180.8 247.818C2209.81 242.297 2234.93 238.725 2263.4 247.818 2275.51 279.142 2271.85 311.26 2270.11 344.364 2262.82 427.593 2262.82 427.597 2312.97 487.382 2346.18 486.816 2363.5 486.406 2387.31 462.596 2388.88 440.107 2388.88 440.107 2387.54 414 2387.45 404.36 2387.36 394.724 2387.27 384.795 2386.95 364.313 2386.35 343.829 2385.46 323.36 2385.5 251.03 2385.5 251.03 2416.39 241.181 2440.57 241.17 2462.72 243.285 2486.44 247.818 2486.85 299.246 2487.15 350.675 2487.35 402.101 2487.43 419.566 2487.54 437.032 2487.68 454.497 2487.89 479.72 2487.98 504.942 2488.05 530.165 2488.14 537.868 2488.22 545.58 2488.31 553.515 2488.34 727.437 2411.8 857.718 2242.24 911.96 2208.34 920.332 2175.31 920.978 2140.53 920.552 2129.65 920.45 2129.65 920.446 2118.56 920.34 1972.62 916.543 1846.37 831.383 1804.3 687.699 1798.41 656.315 1799.29 626.612 1800.81 594.764 1871.08 585.656 1871.08 585.656 1886 619.034 1886.86 624.304 1887.72 629.574 1888.61 635.003 1905.58 732.354 1976.17 808.158 2073.41 826.064 2185.93 833.912 2185.93 833.916 2288.19 793.028 2293.4 789.618 2298.62 786.212 2304 782.7 2373.3 730.794 2393.35 652.271 2403.83 569.982 2399.2 571.292 2394.57 572.602 2389.8 573.954 2300.92 594.024 2241.79 568.532 2189.06 495.636 2179.98 468.398 2179.86 448.309 2179.99 419.646 2180.02 409.664 2180.04 399.679 2180.07 389.393 2180.17 373.752 2180.17 373.752 2180.28 357.79 2180.32 347.261 2180.36 336.736 2180.39 325.893 2180.49 299.865 2180.63 273.842 2180.8 247.818Z" fill="#FFFFFF" fill-rule="nonzero" fill-opacity="1" transform="matrix(1.00366 0 0 1 -59 852.225)"/></g></g></g></g></g></g></svg>