<?xml version="1.0" encoding="UTF-8"?>
<svg id="Layer_2" data-name="Layer 2" xmlns="http://www.w3.org/2000/svg" viewBox="0 0 134.94 226.74">
  <defs>
    <style>
      .cls-1 {
        fill: #fff;
      }
    </style>
  </defs>
  <g id="Layer_2-2" data-name="Layer 2">
    <g id="Layer_1-2" data-name="Layer 1-2">
      <path class="cls-1" d="M64.78,167.73l3.2,53.08-28.37,5.93-14.53-53.11-25.08,4.44,3.67-31.38,17.8-7.71c1.16-23.76,4.23-46.33,10.47-69,3.01-10.94,6.02-21.57,11.35-31.49,3.51-6.53,9-11.93,13.95-17.38,8.01-8.81,17.38-15.48,27.99-21.11,10.12,1.71,18.68,6.2,26.75,12.32,11.28,8.55,19.55,19.53,22.96,33.92l-26.86,27.27-14.3-18.76-19.31,18.36-8.29,54.98,38.05-8.62-11.22,43.21-28.24,5.04h.01ZM59.18,163.28l29.55-5.12,8.21-31.52-37.09,8.31,9.7-64.43,24.9-23.77,14.18,18.79,20.46-20.76c-2.86-9.41-7.7-16.75-14.42-23.1-8.21-7.84-17.59-13.43-28.69-16.12-6.57,3.74-12.65,7.48-18.18,12.67-20.45,19.19-23.55,26.77-30.92,53.72-6.35,23.2-9.24,46.48-10.29,70.52l-18.04,7.98-2.48,21.21,22.86-4.08,14.42,52.92,19.11-3.95-3.28-53.29v.02Z"/>
    </g>
  </g>
</svg>