<?xml version="1.0" encoding="UTF-8"?>
<svg id="Layer_2" data-name="Layer 2" xmlns="http://www.w3.org/2000/svg" viewBox="0 0 1227.02 330.47">
  <defs>
    <style>
      .cls-1 {
        fill: #fff;
      }
    </style>
  </defs>
  <g id="Layer_1-2" data-name="Layer 1">
    <g>
      <path class="cls-1" d="M957.94,329.53c-4.7.8-9.61-.51-12.79-4.55-8.61,8.09-23.02,7.11-30.67-2.79-7.89-10.21-7.79-25.11-.29-35.41,6.61-9.08,18.13-12.06,27.98-6.14l.14-21.51,12.45-.05.04,59.26,5.83.85-2.68,10.34ZM942.02,314.09l.1-20.23c-1.04-3.2-6.3-4.93-9.37-4.82-3.4.12-6.86,1.86-8.81,5.07-3.32,5.45-3.49,12.28-.82,17.97,1.82,3.88,5.2,6.22,8.96,6.65,3.04.34,8.81-1.05,9.93-4.63Z"/>
      <path class="cls-1" d="M871.29,278.63l.11,38.82c.29,1.3,3.57,1.82,5.75,1.65l-2.73,10.59c-5.27.46-9.67-.85-12.88-4.93-7,5.77-16.59,7.64-24.68,3.1-5.18-2.91-8.12-8.99-8.14-15.02l-.11-34.21h12.51s.16,34.07.16,34.07c.02,3.57,3.06,6.06,6.23,6.07,4.3.02,8.26-1.62,11.35-4.3l-.03-35.89,12.45.02Z"/>
      <path class="cls-1" d="M793.34,315.58l3.71,10.23c-5.48,3.82-11.8,5.57-18.44,4s-11.68-7.81-11.76-14.94l-.27-23.09h-7.99s-.01-11.45-.01-11.45l8.45-.03,1.62-14.45,10.45-.12-.02,14.55,12.79.1v11.38s-12.8,0-12.8,0l.05,21.94c0,1.14.92,3.29,1.68,4.01s3.34,1.52,4.34,1.13l8.19-3.25Z"/>
      <rect class="cls-1" x="995.16" y="278.63" width="12.49" height="50.7"/>
      <circle class="cls-1" cx="1001.39" cy="267.39" r="7.88"/>
      <g>
        <g>
          <g>
            <path class="cls-1" d="M574.47,329.93c-4.47-12.69-6.56-24.91-7.22-37.96,6.13-21.96,14.62-42.33,25.29-62.36l21.49-35.69-35.68,19.94c-3.45-1.6-6.32-3.92-8.88-6.91-8.26-9.63-15.27-20.17-20.73-31.63-2.02-4.24-3.2-8.42-3.44-13.03l17.24-30.16c7.08-10.44,14.6-20.05,24.2-28.26l48.31,5.48c10.68,17.25,16.63,35.35,17.98,55.47,12.56-7.9,24.75-14.09,39-18.5l-2.43,27.29-39.01,42.14c-3.42,36.74-13.7,71.46-28.94,105.18-14.67,7.24-30.49,9.79-47.19,9.01ZM615.42,140.23c-12.54-.76-24.77,2.46-31.93,12.07-2.85,7.22-3.4,14.56-2.47,22.13,15.68-4.44,26.45-20.29,34.4-34.19ZM614.77,274.16l6.14-36.61c-14.79,19.5-24.6,40.44-31.25,63.37l25.11-26.76Z"/>
            <path class="cls-1" d="M781.87,122.48l-20.01,28.45-8.98,74.36c-12.46,5.45-25.71,8.56-40.06,10.64l-2.63-69.25-1.82-50.21,2.18-41.23,45.28-13.12,1.15,38.16c11.79-12.29,25.11-21.89,41.18-28.26l32.19,32.22-10.19,32.03-30.18-21.86c-3.16,2.54-5.84,4.84-8.11,8.08Z"/>
          </g>
          <g>
            <g>
              <path class="cls-1" d="M1081.74,233.76l7.05-65.36-8.43-13.78-31.56,37.64-16.3-2.78-16.48-33.59-19,5.33c-4.2,9.42-6.61,18.99-8.08,29.38-1.02,10.4-1.03,20.24-.26,31.3l-22.55.97c-4.16-27.18-5.73-53.63-5.38-80.94l3.4-54.36,29.17-7.32,3.02,41.04,25.97-12.56,22.04,8.63,9.79,30.64,29.48-29.71,27.23,11.94c1.75,9.7,2.13,18.56,2.15,28.2l-3.28,46.4-3.23,35.55-24.75-6.65Z"/>
              <path class="cls-1" d="M1191.05,199.09l-11.51,16.84-36.08-5.64-17.05-34.7-4.83-14.81c-.87-2.66-.23-6.36,1.5-8.59l13.77-17.83,38.04-38.34c10.28,2.15,19.24,5.06,28.39,9.47,6.98,8.95,12.47,18.14,17.22,28.66l6.53,89.49-22.78-.6-6.46-37.02-6.73,13.07ZM1166.02,182.91c9.63-13.68,15.87-27.22,20.14-41.79l-10.2-10.98c-10.22,8.85-18.5,18.22-25.07,29.91l15.13,22.86Z"/>
            </g>
            <path class="cls-1" d="M908.79,198.33l-11.98,17.59-36.08-5.61-17.9-36.75c-2.59-5.31-3.53-10.75-4.67-16.66,1.68-3.54,3.09-6.94,5.55-9.79l21.2-24.5,27.07-26.56c10.11,2.01,19.33,4.88,28.57,9.54,7.13,9.08,12.82,18.53,17.25,29.21l6.46,88.83-22.76-.59-6.62-37.19c-1.61,4.26-3.32,8.44-6.08,12.48ZM883.25,182.85c9.67-13.59,15.66-26.78,20.17-41.6l-10.21-11.15c-10.18,8.83-18.53,18.16-25.09,30.02l15.12,22.74Z"/>
          </g>
        </g>
        <path class="cls-1" d="M298.76,272.91l-11.79-118.22,1.02-33.64-33.43.42-.28-41.01,34.95-2.14,1.65-59.56,51.1-15.13-2,71.58,48.31-3.03,9.22,47.42-58.68.9-3.82,138.52-36.24,13.88ZM303.36,265.48l26.46-10.16,3.86-140.05,57.41-.79-7.1-36.67-49.44,2.98,1.91-70.13-40.44,12.06-1.68,60.53-34.79,2.08.24,30.86,33.5-.55-.77,38.87,10.83,110.95Z"/>
        <path class="cls-1" d="M1094.24,303.96c0,14.39-11.66,26.05-26.05,26.05s-26.05-11.66-26.05-26.05,11.66-26.05,26.05-26.05,26.05,11.66,26.05,26.05ZM1079.22,311.78c2.28-5.22,2.05-11.01-.46-15.82-1.97-3.78-5.62-6.38-9.51-6.71s-8.04.73-10.46,4.02c-4.4,5.98-4.23,14.44-.09,20.39,2.64,3.79,6.58,5.48,10.89,5.08,3.84-.35,7.71-2.55,9.63-6.95Z"/>
        <path class="cls-1" d="M720.07,328.27c-10.22,3.87-21.08,2.67-30.39-3.95l5.44-11.22c9.37,9.38,24.02,5.91,21.68,1.16-.42-.86-1.77-2.53-2.74-2.93l-12.69-5.22c-5.78-2.38-8.93-7.47-9.01-13.17s3.56-11.1,9.49-13.41c8.88-3.47,18.85-2.33,27.24,2.57l-3.76,10.99c-7.95-5.72-19.98-5.6-20.61-.77-.13,1.03,1.6,2.57,2.76,3.05l13.74,5.74c5.66,2.36,8.41,7.88,8.37,13.61-.04,5.71-3.34,11.22-9.51,13.55Z"/>
        <g>
          <path class="cls-1" d="M64.78,167.72l3.2,53.08-28.37,5.93-14.53-53.11-25.08,4.44,3.67-31.38,17.8-7.71c1.16-23.76,4.23-46.33,10.47-69,3.01-10.94,6.02-21.57,11.35-31.49,3.51-6.53,9-11.93,13.95-17.38,8.01-8.81,17.38-15.48,27.99-21.11,10.12,1.71,18.68,6.2,26.75,12.32,11.28,8.55,19.55,19.53,22.96,33.92l-26.86,27.27-14.3-18.76-19.31,18.36-8.29,54.98,38.05-8.62-11.22,43.21-28.24,5.04ZM59.18,163.27l29.55-5.12,8.21-31.52-37.09,8.31,9.7-64.43,24.9-23.77,14.18,18.79,20.46-20.76c-2.86-9.41-7.7-16.75-14.42-23.1-8.21-7.84-17.59-13.43-28.69-16.12-6.57,3.74-12.65,7.48-18.18,12.67-20.45,19.19-23.55,26.77-30.92,53.72-6.35,23.2-9.24,46.48-10.29,70.52l-18.04,7.98-2.48,21.21,22.86-4.08,14.42,52.92,19.11-3.95-3.28-53.29Z"/>
          <g>
            <path class="cls-1" d="M217.66,225.06l-60.75,1.24-17.95-19.26c-1.35-28.96-1.78-57.03-.96-86.37l17.15-21.65,71.73-6.59,16.33,18.96-2.82,89.57-22.73,24.1ZM159.32,221.01l55.94-1.1,19.92-21.03,2.66-85.73-13.13-15.14-66.75,5.94-14.7,18.51c-.89,27.75-.32,54.64.84,82.42l15.21,16.14Z"/>
            <path class="cls-1" d="M212.54,186.85l-39.36-6.49,1.51-52.64,33.67-3.24,4.18,62.37ZM206.85,180.61l-3.41-50.42-23.59,2.31-1.27,43.41,28.27,4.7Z"/>
          </g>
        </g>
        <g>
          <path class="cls-1" d="M488.04,225.08l-60.61,1.22-18-19.28c-1.32-29-1.8-57.23-.93-86.42l17.16-21.59,71.7-6.58,16.32,18.97-2.82,89.51-22.84,24.16ZM429.92,221.02l55.89-1.13,19.86-21,2.68-85.7-13.18-15.2-66.66,5.95-14.81,18.58c-.71,27.87-.3,54.76.92,82.33l15.31,16.16Z"/>
          <path class="cls-1" d="M483.04,186.85l-39.37-6.51,1.53-52.66,33.66-3.19,4.18,62.36ZM449.08,175.89l28.27,4.79-3.41-50.53-23.6,2.42-1.25,43.32Z"/>
        </g>
      </g>
    </g>
  </g>
</svg>