<?xml version="1.0" encoding="UTF-8"?>
<svg id="Layer_1" data-name="Layer 1" xmlns="http://www.w3.org/2000/svg" viewBox="0 0 957.87 953.19">
  <defs>
    <style>
      .cls-1 {
        fill: #fff;
      }
    </style>
  </defs>
  <path class="cls-1" d="M480.05,951.16l-17.69-75.47-.73,75.41-25.77-.32.12-123.46-11.32-.35,13.89-63.37.49,65.33,20.76-.49-.09-108.43-30.85-.17-14.89,64.1-15.1-64.19-30.79.36-.03,107.58c2.85,1.32,5.67,1.38,9.9.82l45.27,118.3c.74,1.93-1.4,4.38-2.95,4.38l-25.17-.1-9.77-26.93-42.09-.05-9.39,27h-25.01c-2.48,0-2.87-3.42-2.06-5.6l43.02-115.63c.46-1.24,2.28-3.72,2.28-4.96l-.08-104.68-22.19.21v107.33s-33.28-.02-33.28-.02c12.51-6.43,19.01-18.02,18.97-31.94-.03-11.01-4.08-21.76-13.62-27.81-6.03-3.82-13.22-5.57-19.93-8.01l-16.26-5.9c-1.92-.7-3.51-4.67-3.32-6.5.82-7.89,15.64-10.36,23.28-5.2,3.67,2.48,4.63,7.9,5.3,12.45l21.87-1.22c.27-12.76-4.87-25.88-16.96-31.56s-26.81-5.67-38.65-.02-17.32,18.95-15.88,31.78,10.27,22.64,23.15,26.74l21.85,6.96c5.41,1.72,8,6.7,6.41,12.07-1.81,6.12-7.33,9.14-13.69,9.34-13.53.43-17.86-6.59-20.13-20.07l-21.3,2.31c.33,7.75,2.31,15.25,5.79,22.3,6.15,10.59,16.65,16.48,29.01,17.05,11.73,5.95,18.75,17.25,22.17,29.94l.23,3.56c.06.96-2.06,2.26-3.07,2.43l-23.41,3.94c-2.28-13.47-12.63-20.83-25.2-20.33-12.84.51-23.41,8.53-26.69,21.32-2.97,11.57-2.73,23.86.58,35.35,4.08,14.16,16.94,22.65,31.54,20.64,7.44-1.03,14.22-4.36,20.46-8.45l.09-11.8-22.26.03c-2.07,0-4-2.01-3.96-4.02l.44-20.38,49.85-.16c1.93,0,3.48,2.45,3.47,4.25l-.12,46.56c-17.83,16.24-42.39,23.14-65.99,18.12-18.01-3.83-31.81-15.69-38.5-32.69-13.04-33.12-4.74-75.49,29.36-90.6l-33.79.32-82.26.7-105.35.62,244.73-419.19L478.94,0l236.8,415.2,242.13,414.7-105.14-.65-83.03-.69-22.09-.21c22.53,9.95,23.3,37.61,21.86,37.69l-2.35.12-24.48,1.04c-.87-5.52-2.07-11.8-7.34-14.55-10.52-5.5-28.31-1.91-28.38,6.74-.02,1.92,1.92,5.83,3.96,6.53l16.57,5.63,24.18,7.64c13.52,5.84,20.95,18.15,21.43,32.61.63,19.03-10.97,35.33-29.69,39.39-11.72,2.54-23.78,2.85-35.4-.19-20.33-5.31-28.64-21.4-31.5-40.82-.2-1.35,2.12-3.65,3.22-3.74l23.17-1.95c1.42,7.42,2.87,14.47,8.82,18.86,7.96,5.87,19.96,5.78,28.14.48,5.22-3.38,7.83-10.85,3.98-15.8-3.19-4.1-9.17-5.36-14.06-6.83l-26.09-7.83c-13.64-5.33-22.55-17.34-23.07-31.43s6.9-27.67,20.58-32.94l17.94-.35.1-21.46-50.7-.15v-24.15s45.31-.12,45.31-.12l.03-21.64-45.31-.06v-19.44s48.58-.05,48.58-.05l.63-17.88c.04-1.1-1.7-3.48-2.69-3.92l-68.75.19.07,108.6,14.19.37.12,18.12c0,1.18-1.35,3.19-2.63,4.05l-58.37-.04-.13,22.53h53.65c1.51.01,3.32,2.56,3.29,3.97l-.52,20.45-56.35.1v28.51s60.46-.04,60.46-.04c.94.42,2.75,2.37,2.76,3.42l.05,16.8c0,1.12-1.15,3.19-2.06,4.27l-85.72.03c-1.03-.46-2.82-2.38-2.82-3.42l.02-118.83,60.75-.03.27-21.65-45.24-.12-.14-87.06-22.1.42-.03,106.78-16.05-.08.1,121.38c-.63,1.05-2.68,2.66-3.87,2.65l-21.89-.08-.33-72.37c.64-1.76.11-3.44-.87-1.53l-17.26,73.84-25.59.14ZM582.74,623.85l-60.99-107.57-39.8-71.22-59.31,105.36-41.71,73.48,201.82-.04ZM499.55,826.73l.02-38.01,22.9-.43c11.35-.21,20.96-7.18,25.31-17.79,4.44-10.82,4.01-23.16-.24-33.92-4.52-9.41-12.65-16.06-23.13-16.14l-47.11-.32-.02,100.7c0,3.15-.08,5.18-2.65,7.41l18.26,72.37,18.52-73.59-11.86-.28ZM376.35,899.57l-12.45-34.67-12.21,34.76,24.66-.09Z"/>
  <g>
    <polygon class="cls-1" points="403.13 826.78 388.94 827.4 389.5 763.64 403.13 826.78"/>
    <path class="cls-1" d="M528.03,753.39c.67,7.33-4.24,12.97-11.06,13.22l-17.44.65v-25.72s17.46.54,17.46.54c6.06.19,10.84,4.64,11.04,11.32Z"/>
  </g>
</svg>