<?xml version="1.0" encoding="UTF-8"?>
<svg id="Layer_2" data-name="Layer 2" xmlns="http://www.w3.org/2000/svg" viewBox="0 0 668.24 787.61">
  <defs>
    <style>
      .cls-1 {
        fill: #fff;
      }
    </style>
  </defs>
  <g id="Layer_1-2" data-name="Layer 1">
    <g>
      <path class="cls-1" d="M395.9,707.89c2.95-29.39,20.94-55.08,6.85-75.43-5.69-8.22-24.5,1.23-35.46,7.36-21.01,11.74-41.12,19.41-65.59,15.38-11.99-1.98-22.5-7.07-32.58-13.15l-14.45-8.72c-12.09-7.29-25.39-10.52-39.78-8.89-15.8,1.79-31.55,2.87-47-1.25-13.62-3.63-26.4-9.67-36.3-19.41l-12.13-11.94-4.35-5.37-9.99-14.98c-7.96-11.94-16.07-22.95-25.73-33.38l-10.16-10.97-8.98-10.91-12.24-16.71c-17.15-25.97-30.22-53.59-37.91-83.7-5.12-20.02-8.94-39.24-10-59.81l-.07-51.14c6.31-90.9,50.86-169.71,118.95-228.94l12.16-9.85c13.8-11.18,28.57-20.03,44.31-28.69,15.71-8.64,32.32-15.26,49.46-21.04l28.78-8.12c18-5.08,36.03-7.25,54.71-8.21l49.82.03c26.52,1.4,51.43,6.41,76.87,13.78,27.32,7.92,51.94,19.72,76.09,34.7,28.67,17.78,53.38,38.82,75.49,64.28,12.93,14.89,24.65,30.18,34.48,47.34l9.48,16.54c23.63,45.23,36.54,94.58,37.55,145.87.79,39.92-4.23,78.81-17.53,116l-9.54,22.75c-15.76,33.2-37.18,62.49-62.85,88.59l-5.31,5.74-5.51,5.44-24.64,24.4-4.74,5.32-11.22,14.89c-5.07,6.73-7.55,15.01-10.02,23.28-8.57,28.74,7.24,49.35,9.76,72.89l.17,21.27c.04,5.62-1.39,11.84-3.66,17.06l-3.18,7.31-9.11,14.91c-3.1,5.07-7.14,8.36-11.87,12-14.77,11.34-33.31,15.41-51.96,12.09-12.79-2.28-22.77-9.83-32.95-17.56-1.74-1.32-2.13-1.68-3.13-3.5l-9.24-16.8c-5.41-12.7-7.1-26.91-5.71-40.75ZM363.99,619.26l14.36-6.15c9.42-4.03,19.81-5.58,29.68-1.52l7.83,4.58c9.94,12.11,12.57,26.67,11.45,42.32-1.56,21.82-15.51,42.22-11.57,68.53,2.6,17.32,13.29,32.52,29.97,38.35,19.84,6.94,40.83-1.88,52.03-19.09,11.24-17.28,12.03-37.23,6.22-56.87l-6.8-22.97c-5.12-23.37-1.76-46.13,10.24-66.57,7.57-12.91,16.64-24.15,27.33-34.43l8.7-8.37,22.05-22.11,11.48-12.35,4.97-6.06,4.05-4.92,11.22-14.67,11.96-17.6c-.17-2.63.63-4.67,3.01-5.74,26.53-44.85,38.95-101.79,36.81-153.81-2.91-70.43-29.88-139.57-76.05-192.27-3.45-4.2-6.64-7.64-10.42-10.76-2.52-5.07-7.09-8.39-10.98-11.82l-17.62-15.53c-53.52-44.11-118.57-67.85-188.28-70.7-45.62-1.87-106.46,9.03-146.97,29.47l-14.1,7.11c-31.2,15.74-58.4,38.15-82.01,63.9l-4.37,4.77-21.36,26.79c-15.73,21.68-28.28,45.07-38.04,70.01l-7.05,21.14c-8.58,25.73-12.61,52.27-12.83,79.43l-.13,15.8c.79,16.56,1.1,32.96,4.78,49.17l5.19,22.83c5.13,22.58,14.01,43.65,25.92,63.39l8.24,13.67,10.16,13.86,6.42,8.07,6.7,7.87,9.99,11.05,4.74,5.35,12.95,17.11c7.48,9.89,12.57,21.56,21.5,30.36l7.55,7.44c15.89,15.65,37.88,21.11,59.93,18.49,17.64-2.09,35.2-3.38,50.79,4.95l16.35,8.73c8.31,4.44,15.74,10.29,24.71,13.32,13.77,4.65,28.06,5.71,41.2.07l16.16-6.93,11.97-6.73Z"/>
      <g>
        <g>
          <path class="cls-1" d="M254.79,274c-1.74,1.5-2.74,1.79-4.36,2.28-10.86,3.28-21.84,2.11-30.32-6.17-17.42-16.98-20.69-44.1-20.79-68.46-.09-19.55,2.93-38.88,12.87-55.59,5.96-11.21,16.03-18.51,28.85-18.84l8.43,2.08c35.51,15.09,38.12,86.37,23.48,120.74-2.48,5.83-5.5,11.55-9.4,16.44l-8.76,7.53Z"/>
          <path class="cls-1" d="M462.3,247.47c-3.95,10.59-10.27,20.54-19.92,26.27-12.08,7.18-26.2,4.67-35.48-5.3-4.14-4.45-7.87-9.62-10.29-15.46-13.09-31.56-12.97-80.73,5.65-110.31,3.39-5.38,9.38-10.14,15.45-12.8,10.51-4.6,22.4-1.73,31.03,6.4,14.55,13.69,19.41,37.62,20.78,58.4l-.12,18.97c-.07,11.75-3.01,22.85-7.11,33.83Z"/>
        </g>
        <g>
          <path class="cls-1" d="M189.14,499.94c-18.31,10.11-45.16,3.94-63.06-8.66l-8.83-6.21c-1.83-1.29-3.98-4.63-5.5-6.45-13.72-16.39-22.56-41.76-10.68-59.68l8.84-2.87c2.58.28,7.91,1.73,9.71,3.47l5.6,5.43c7.38,14.39,13.8,31.03,30.33,29.19,5.56-.62,9.61-5.96,9.56-11.77-.06-6.88-3-13.53-7.82-18.18l-7.23-6.96-8.13-6.8c-10.1-8.46-20.85-15.54-29.7-25.11-15.89-17.18-23.45-41.41-10.29-61.01,20.33-30.26,74.51-23.26,100.44,7.43,11.66,13.8,14.38,40.6-1.16,51.09-11.57,5.21-23.99-1.04-28.87-12.74l-3.44-15.18c-.75-3.33-3.45-6.77-5.86-7.62-3.69-1.3-8.19-.46-11.19,2.25-9.71,8.76-1.8,24.32,9.82,34.27l14.29,12.23,11.49,9.86c.9.77,2.38,2.73,3.14,3.81l13.57,19.54c3.15,4.54,4.67,11.77,5.67,17.6,1.18,6.87.71,14.12.02,21.09-1.33,13.39-8.44,25.18-20.72,31.96Z"/>
          <path class="cls-1" d="M494.31,495.07c-8.81-16.26,4.36-46.72-4.6-64.32l-9.85-19.36c-8.56-16.81-15.18-34.23-19.85-52.7l-2.37-16.45c-.72-4.99,1.16-12.01,5.44-15.18,8.79-6.51,20.34-9.25,30.89-7.51,4.92.81,9.85,5.55,9.81,10.19l-.16,18.41c-.1,11.28-2.86,36.48,7.63,40.54,18.47,7.14,19.92-30.27,19.12-50.11-.36-9.05,1.04-17.48,4.82-25.64l5.53-4.14c8.08-4.19,17.19-5.63,25.88-3.94,7.1,1.39,11.49,7.49,10.73,14.82-1.21,11.79-3.6,23.47-8.13,34.43l-17.88,43.27-6.6,13.33-4.76,10.47c-1.53,3.36-2.72,7.37-2.31,11.25l1.96,18.45,1.37,8.8,1.05,10.27c.98,9.53-4.94,17.92-12.95,21.68l-14.11,6.63c-6.93,3.26-15.2,1.68-20.67-3.2Z"/>
          <path class="cls-1" d="M319.8,475.28c3.44,7.71,2.53,40.41-10.7,46.21-8.95,3.93-19.74,3.55-29.44,2.81-17.34-1.33-48.64-2.01-55.89-13.4-5.12-8.05-4.39-17.33-3.51-26.33l2.68-27.6c2.41-24.77,5.08-49.29,4.09-74.13l-.89-22.35-.55-20.59c-.28-10.33,25.19-17.09,42.12-7.21,3.25,1.9,5.48,7.42,5.41,10.71l-.3,13.73-3.68,25.4-5.21,40.05c-1.7,13.1-1.81,26.26,1.26,38.92,2.66,10.98,12.67,15.91,23.05,12.9l15.69-4.55c5.35-1.55,13.26-.42,15.87,5.42Z"/>
          <path class="cls-1" d="M390.71,468.97c-2.48,3.8-4.43,8.55-4.02,12.74l2.6,26.67c.74,7.56-2.27,13.33-9.53,15.98-10.58,3.87-22.47,4.58-33.74,2.53-7.94-1.45-13.76-8.56-12.21-16.49l5.27-26.99,8-35.91,6.52-33.74,3.11-18.81.95-7.23,1.14-11.92,1.01-12.06,1.16-10.45c2.2-19.86,27.24-24.73,46.86-24.06,5.85.2,11.69,2.14,17.1,4.22l5.14,5.79c2.3,5.81,3.43,12.68,4.68,18.88l7.72,38.26,10.06,35.02,16.29,50.62c2.4,7.45,3.54,16.03,1.58,23.51-3.19,12.15-29.55,15.71-43.78,13.77-4.13-.57-9.61-3.34-10.91-7.19-1.74-5.17-1.36-10.66-.72-15.91,1.52-12.61,1.14-28.1-9.37-31.44-5.32-1.69-11.55-.87-14.88,4.22ZM400.64,432.69c6.81-1.06,10.35-5.96,10-12.23-.66-11.99-2.55-23.36-5.32-35.12-.47-1.99-3.33-4.7-5.03-4.79-10.23-.54-12.39,28.24-11.92,43.03.08,2.54,1.85,6.36,3.54,7.51,1.9,1.3,6.08,2.02,8.73,1.6Z"/>
        </g>
      </g>
    </g>
  </g>
</svg>