<?xml version="1.0" encoding="UTF-8"?>
<svg id="Layer_2" data-name="Layer 2" xmlns="http://www.w3.org/2000/svg" viewBox="0 0 727.15 769.93">
  <defs>
    <style>
      .cls-1 {
        fill: #fff;
      }
    </style>
  </defs>
  <g id="Layer_1-2" data-name="Layer 1">
    <path class="cls-1" d="M151.5,204.24c-2.44-3.66-6.55-5.86-10.95-5.86H13.19c-10.52,0-16.8,11.73-10.95,20.48l363.83,545.2c5.21,7.82,16.7,7.81,21.91,0l275.43-412.95c5.84-8.75-.44-20.48-10.96-20.48h-134.61l88.4-132.26-88.21,132.25-130.06,195c-5.21,7.82-16.7,7.82-21.91,0L151.5,204.24Z"/>
    <path class="cls-1" d="M314.45,119.09c0,7.27,5.9,13.17,13.17,13.17h130.16c10.52,0,16.8,11.73,10.96,20.48l-105,157.43c-5.84,8.75.44,20.48,10.96,20.48h143.33l88.21-132.26,118.66-177.9c5.84-8.75-.44-20.48-10.96-20.48h-386.33c-7.27,0-13.17,5.9-13.17,13.17v105.92h0Z"/>
  </g>
</svg>