<?xml version="1.0" encoding="UTF-8"?>
<svg id="Layer_2" data-name="Layer 2" xmlns="http://www.w3.org/2000/svg" viewBox="0 0 626.33 374.21">
  <defs>
    <style>
      .cls-1 {
        fill: #fff;
      }
    </style>
  </defs>
  <g id="Layer_1-2" data-name="Layer 1">
    <g>
      <path class="cls-1" d="M560.42,142.96l-.27,62.21c-.02,3.71,2.21,6.52,5.96,7.17,20.34,3.52,40.61,5.99,60.23,12.19-76.54-9.3-152.14-14.65-228.94-16.65-84.95-2.22-169.31.15-254.11,5.19-48.23,2.87-95.13,7.2-143.28,13.31,15.55-5.48,31.58-7.47,47.96-10.56,1.86-.26,6.12-1.2,7.11-2.77l10.49-16.72L153.41,60.15l-49.18.04c-7.67,0-14.93,1.12-22.27,2.55-15.71,6.1-15.26,32.42-18.26,30.89l-2.61-1.34,3.51-41.62,125.86.03-75.47,115.06-23.66,35.33,59.82-.03c15.19-.74,28.08-7.09,35.88-20.05l1.68-1.22c.52-.38,2.85.2,2.68.82l-.79,2.79-5.93,20.95c10.14-.61,19.39-1.37,28.72-3.08,14.33-2.64,19.94-24.42,26.02-40.07L301.61.86c3.6-1.08,6.65-1.1,10.35-.27l44.55,113.24,27.42,70.28c4.11,10.54,12.47,15.72,23.27,16.25l58.58,2.86c-15.2-7.59-26.16-18.98-31.66-35.1-7.23-21.2-7.72-44.08-1.89-65.7,4.01-12.46,9.1-23.67,18.31-32.95,24.62-24.8,57.93-21.8,90.87-18.78l15.29,1.41,3.69,39.2c.15.46-1.09,2.76-1.58,2.3l-2.11-1.97c-3.35-13.15-11.29-23.43-23.21-29.91-17.07-7.43-37.02-8.08-53.67,1.14-11.44,6.33-18.86,17.94-22.48,30.51-9.24,32.14-4.44,76.72,22.88,97.78,13.55,10.45,30.68,14.21,47.57,12.7,4.42-.4,7.11-4.64,7.1-8.77l-.13-48.4c-.02-6.62-5.09-8.87-11.05-9.95l-4.01-.73c-1.09-.2-.83-3.32-.59-5.76l55.09-.07c.52.9,1.13,3.56,1,4.6-.31,2.46-14.76.83-14.79,8.21ZM333.75,124.07l-27.99-75.66-26.84,75.8,54.84-.15ZM358.56,194.83l-1.64-8.36-18.57-50.13-63.2-.02-18.17,51.63c-.86,2.44-.96,6.44.46,8.16,1.25,1.51,4.72,3.7,7.24,3.69l79.42-.27c5.53-.02,9.42-1.64,14.46-4.7Z"/>
      <g>
        <polygon class="cls-1" points="317.47 374.17 316.96 327.69 294.34 374.12 281.22 374.16 259.51 328.71 259.26 374.17 227.2 374.17 227.2 257.8 260.45 257.78 288.26 317.25 316.23 257.74 350.22 257.86 350.18 374.16 317.47 374.17"/>
        <polygon class="cls-1" points="490.22 374.06 459.17 374.21 435.69 325.61 435.32 374.17 402.94 374.16 402.93 257.77 436.82 257.71 458.99 304.43 459.28 257.8 490.18 257.68 490.22 374.06"/>
        <path class="cls-1" d="M96.85,308.98l33.53-.12v48.39c.01,8.72-5.84,16.72-15.39,16.71l-48.5-.04c-9.05,0-14.72-8.35-14.72-16.76l-.03-82c0-9.82,5.85-17.6,16.67-17.59l55.81.05-.2,32.69-40.05-.04-.04,52.36,12.89-.13.04-33.53Z"/>
        <path class="cls-1" d="M546,308.94l33.8-.03.04,49.32c0,8.1-6.37,15.7-14.88,15.71l-48.77.09c-7.07.01-14.77-6.41-14.79-14.15l-.2-86.68c-.02-9.44,7.66-15.82,16.8-15.72l54.79.29.1,32.47-40.25.07-.06,52.08,13.29.27.11-33.72Z"/>
        <rect class="cls-1" x="359.6" y="257.57" width="32.91" height="116.6"/>
        <path class="cls-1" d="M185.25,374.17l-.06-22.7-11.93.11v22.58s-31.56,0-31.56,0l-.02-99.91c0-9.36,5.79-16.69,15.61-16.68l43.94.06c8.14.01,15.16,5.99,15.16,14.61l.05,101.92h-31.2ZM185.2,288.01h-11.93v36.08h11.93v-36.08Z"/>
      </g>
    </g>
  </g>
</svg>